<?xml version="1.0" standalone="no"?>
<!DOCTYPE svg PUBLIC "-//W3C//DTD SVG 20010904//EN"
 "http://www.w3.org/TR/2001/REC-SVG-20010904/DTD/svg10.dtd">
<svg version="1.0" xmlns="http://www.w3.org/2000/svg"
 width="512.000000pt" height="512.000000pt" viewBox="0 0 512.000000 512.000000"
 preserveAspectRatio="xMidYMid meet">
<metadata>
Created by potrace 1.11, written by Peter Selinger 2001-2013
</metadata>
<g transform="translate(0.000000,512.000000) scale(0.100000,-0.100000)"
fill="#000000" stroke="none">
<path d="M2065 4723 c-282 -26 -569 -151 -802 -351 -129 -111 -275 -315 -341
-480 -65 -162 -84 -259 -86 -440 l-1 -162 -40 -11 c-328 -85 -591 -330 -702
-654 -207 -607 215 -1259 850 -1315 159 -14 356 -13 387 3 35 18 48 59 27 90
-15 24 -16 24 -239 30 -174 5 -241 10 -304 26 -384 95 -644 436 -644 846 0
156 31 278 108 430 38 73 64 108 142 186 132 134 261 204 435 237 120 23 116
17 109 196 -8 178 9 306 58 445 142 402 468 677 923 777 122 27 387 24 522 -4
304 -65 568 -229 744 -461 66 -87 153 -264 184 -375 38 -133 38 -131 -47 -150
-164 -37 -331 -125 -457 -242 -114 -105 -136 -150 -96 -194 34 -37 63 -26 139
54 113 119 217 186 366 236 93 31 261 38 364 16 389 -87 694 -446 723 -851 7
-100 20 -117 103 -133 314 -60 509 -327 449 -614 -40 -191 -211 -356 -419
-402 -47 -10 -173 -16 -448 -21 -211 -3 -390 -9 -398 -12 -18 -7 -28 -46 -20
-78 11 -44 50 -48 447 -42 413 5 451 11 598 87 291 152 433 432 361 715 -29
114 -79 196 -179 295 -92 92 -192 153 -303 185 l-56 16 -7 52 c-24 184 -105
376 -225 532 -105 136 -290 282 -439 345 -74 32 -218 70 -263 70 -20 0 -29 6
-33 23 -2 12 -11 52 -20 90 -47 210 -175 437 -344 605 -293 293 -709 443
-1126 405z"/>
<path d="M2352 1929 c-108 -54 -192 -175 -192 -279 0 -45 27 -80 60 -80 33 0
70 44 70 82 1 67 53 144 113 167 40 15 132 14 170 -3 39 -16 82 -61 96 -99 27
-72 5 -183 -46 -229 -52 -47 -65 -48 -560 -48 -522 0 -513 1 -513 -64 0 -69
-19 -67 526 -64 l489 3 56 28 c112 54 180 155 187 278 4 68 1 84 -22 135 -80
176 -274 253 -434 173z"/>
<path d="M3124 1599 c-94 -27 -183 -124 -205 -224 -11 -51 -11 -58 8 -83 39
-52 113 -29 113 36 0 15 10 48 23 72 29 59 73 82 145 77 94 -7 146 -69 139
-165 -4 -61 -28 -99 -78 -124 -32 -17 -103 -18 -1061 -18 -1015 0 -1028 0
-1048 -20 -27 -27 -25 -62 3 -88 l24 -22 1039 2 1039 3 51 27 c97 51 164 155
164 253 0 73 -28 135 -90 197 -78 77 -171 105 -266 77z"/>
<path d="M1325 886 c-30 -30 -31 -45 -4 -80 l20 -26 736 0 c649 0 739 -2 768
-16 72 -34 86 -147 27 -207 -80 -80 -222 -19 -222 96 0 54 -77 80 -112 37 -23
-29 -23 -57 2 -122 21 -58 81 -123 140 -154 50 -26 153 -25 205 3 88 47 154
147 155 233 0 87 -65 185 -154 233 l-41 22 -748 3 -747 2 -25 -24z"/>
</g>
</svg>
